EMG
version=1
nRows=38
nColumns=17
inDegrees=no
endheader
time	_right_gast_med	_right_glut_max	_left_gast_med	_left_glut_max	_right_glut_med	_right_bic_fem	_right_rect_fem	_right_vast_lat	_right_vast_med	_right_tens_fasc_lat	_left_glut_med	_left_bic_fem	_left_rect_fem	_left_vast_lat	_left_vast_med	_left_tens_fasc_lat
      0.50000000	     -1.95491052	      0.23576576	     -0.00286108	     -0.01953661	     -0.13983713	      0.02193616	      0.10711539	      0.33443540	     -0.17089939	      0.03385536	     -0.06504346	     -0.05603518	      0.01243018	     -0.01388087	      0.05953522	      0.05941549
      0.51000000	     -2.27275825	      0.18441428	     -0.00301497	     -0.18148868	     -0.02348968	      0.04321532	     -0.15821256	      0.25217038	     -0.09500282	      0.05110641	     -0.09125876	     -0.00001919	      0.00063770	      0.02348942	      0.05264803	      0.03374039
      0.52000000	     -1.00486803	     -0.08698209	      0.00195572	     -0.12668231	      0.17187373	      0.01946135	     -0.38835502	     -0.25330147	      0.25469530	     -0.03845333	     -0.07432535	      0.07836288	     -0.00408990	      0.07943491	      0.00472882	     -0.00988371
      0.53000000	      0.66972595	     -0.17646645	      0.01209438	      0.27008304	      0.17713901	     -0.06033335	     -0.33868557	     -0.13030080	      0.28084558	     -0.06211435	     -0.03690010	      0.09870325	     -0.00134557	      0.09231982	     -0.02462299	     -0.05151298
      0.54000000	      0.61404139	     -0.12112562	      0.02034971	      0.43402556	      0.10911764	      0.04914766	     -0.13449956	     -0.03256491	      0.22059168	     -0.07093479	     -0.00550298	      0.07107473	     -0.00167035	      0.03858210	     -0.02617852	     -0.07326557
      0.55000000	      0.35184589	      0.04069020	      0.01310238	      0.16279709	      0.08492819	      0.09662320	     -0.01993631	      0.00326562	      0.17947465	      0.01346594	      0.04490393	      0.04103247	      0.00438894	     -0.01717262	     -0.03683985	     -0.05605127
      0.56000000	      0.25022867	      0.40378779	      0.00057666	     -0.01195671	      0.08682797	     -0.00894206	      0.02093616	      0.10908891	      0.15875885	      0.10611878	      0.09386285	      0.02470522	      0.01502458	     -0.02842620	     -0.04793423	      0.01420856
      0.57000000	      0.77239037	      0.39343309	      0.00468409	      0.00652717	      0.12240019	     -0.08017625	      0.02959970	      0.16433042	      0.08440976	      0.09806640	      0.11125286	      0.03137334	      0.01671524	     -0.00723933	     -0.03295241	      0.08588934
      0.58000000	      1.15853882	     -0.09687472	      0.00855592	     -0.01751250	      0.14154325	     -0.08041762	      0.01569577	      0.07990192	     -0.15432870	      0.07201283	      0.08012719	      0.03422720	      0.01484652	      0.00260866	      0.01461019	      0.08972001
      0.59000000	      0.81819749	     -0.37168092	      0.01090775	     -0.07312251	      0.12722458	     -0.05325011	      0.00563002	     -0.04991511	     -0.25852463	      0.05922929	      0.03543376	      0.00639424	      0.01377627	     -0.02297099	      0.06159309	      0.04249445
      0.60000000	      0.49541336	     -0.06585204	      0.03426160	     -0.01449999	      0.13250260	      0.02118467	      0.02893393	     -0.07702415	     -0.11421298	      0.01553288	      0.00872902	     -0.01758689	      0.00775596	     -0.05155468	      0.02631588	     -0.00784136
      0.61000000	      0.38667560	      0.11779264	     -0.02144828	      0.03925775	      0.11784106	      0.07079525	      0.05721796	     -0.04961833	      0.00562393	     -0.01880165	      0.00581103	      0.01594875	      0.00798478	     -0.07716267	     -0.09237130	     -0.03428638
      0.62000000	      0.00845452	     -0.14045517	     -0.13231267	      0.03449208	      0.04704408	      0.05132800	      0.07142957	     -0.04205759	      0.04576485	     -0.01399111	      0.01650082	      0.06594503	      0.02075121	     -0.09016376	     -0.16159114	     -0.03377502
      0.63000000	     -0.25075769	     -0.15212321	     -0.05324122	      0.03288989	     -0.00310635	     -0.01971948	      0.07553311	     -0.02859552	      0.04636620	      0.01145237	      0.02968569	      0.02530937	      0.03325525	     -0.05891278	     -0.16105416	     -0.01164655
      0.64000000	      1.37372458	      0.34006581	      0.08158741	     -0.04462132	     -0.00895501	     -0.06361011	      0.06349196	      0.03732410	      0.03955692	      0.00565738	      0.03721550	     -0.07848281	      0.02885424	      0.01030945	     -0.13798504	      0.01333722
      0.65000000	      0.97199053	      0.47007400	      0.13745958	     -0.06713219	     -0.00970160	     -0.06000446	      0.04717104	      0.12839517	      0.03445562	     -0.03452988	      0.02215920	     -0.11286819	      0.01709437	      0.07276987	     -0.04726776	      0.03566742
      0.66000000	     -2.11156726	      0.17872177	     -0.01779431	      0.01801236	     -0.01715003	     -0.01158027	      0.03167693	      0.16810872	      0.02610758	     -0.05494788	     -0.00705672	     -0.02823162	      0.02210513	      0.11983451	      0.06517021	      0.03723601
      0.67000000	     -2.51543713	     -0.08516856	     -0.05453644	      0.05476127	     -0.01256255	      0.04910903	      0.02360789	      0.13859044	      0.02348946	     -0.02300773	     -0.02899445	      0.04150835	      0.01280197	      0.10188463	      0.11439776	      0.01258889
      0.68000000	      0.37339461	     -0.20682351	     -0.01452323	     -0.00073588	     -0.01157183	      0.06118277	      0.03002212	      0.04620198	      0.03076193	      0.02557890	     -0.03157797	      0.10139587	     -0.01198324	     -0.01661629	      0.15758023	      0.00036072
      0.69000000	      2.97144175	     -0.19704252	      0.02519709	     -0.03341302	     -0.01603760	      0.00980346	      0.04071354	     -0.09584324	     -0.01327915	      0.03283080	     -0.02057671	      0.11510162	     -0.00544758	     -0.07951464	      0.21623437	     -0.00686790
      0.70000000	      2.52377605	     -0.05292463	      0.08533749	      0.01849639	     -0.01191072	     -0.02554470	      0.04381113	     -0.18276532	     -0.16177131	      0.01766746	     -0.00018356	     -0.00183610	      0.02088276	     -0.01909502	      0.18457462	     -0.00448204
      0.71000000	      0.46477130	      0.20017332	     -0.04722533	      0.07312806	     -0.00325359	     -0.00371253	      0.04244857	     -0.17528094	     -0.20032498	      0.00830208	      0.03091639	     -0.07599811	      0.00833774	      0.02839989	     -0.12920624	      0.01567913
      0.72000000	     -1.12509143	      0.23900062	     -0.02914954	      0.06470251	      0.00489511	      0.02122135	      0.03774595	     -0.11887513	     -0.11943967	      0.01064308	      0.06734920	     -0.04891811	      0.00593264	      0.01666110	     -0.49498004	     -0.01626774
      0.73000000	     -1.69498456	     -0.11006271	      0.04656455	      0.03730836	      0.01079585	      0.03709042	      0.01871426	     -0.05409910	     -0.07984409	      0.01892914	      0.08895611	     -0.01286092	      0.03095989	     -0.04042876	     -0.39093921	     -0.06934866
      0.74000000	     -1.13766849	     -0.39847660	      0.08006360	      0.06430233	      0.00586382	      0.03073497	     -0.00993993	      0.00885250	     -0.07091487	      0.00728655	      0.06816285	      0.00281977	      0.02509992	     -0.07058814	     -0.03497500	     -0.00480276
      0.75000000	     -0.52987891	     -0.30616522	      0.05428047	      0.01394671	      0.00612605	      0.01113311	     -0.01788077	      0.05143908	     -0.05282046	     -0.04507514	      0.02878341	      0.02802054	     -0.01943179	     -0.00092670	      0.29587975	      0.07094908
      0.76000000	     -0.18568249	     -0.06036784	     -0.04743851	     -0.06378328	      0.01535587	      0.01742926	      0.00464359	      0.05689877	     -0.03053926	     -0.08687611	     -0.01461242	      0.01804212	     -0.03351704	      0.07418703	      0.39096439	      0.03661626
      0.77000000	      0.08603214	      0.01236899	     -0.01740382	      0.00032770	     -0.02035126	      0.05235533	     -0.02088483	      0.03754244	     -0.02671220	     -0.01970650	     -0.07288913	      0.00139429	      0.01072380	      0.06202386	      0.28377897	     -0.05909730
      0.78000000	      0.25695342	     -0.03710799	      0.02419459	      0.04408623	     -0.11761414	      0.03815341	     -0.07209184	      0.02479208	     -0.01509692	      0.05102058	     -0.09411495	      0.01454040	     -0.00920648	     -0.00894202	      0.12309003	     -0.07456926
      0.79000000	      0.20823307	     -0.07699554	     -0.01894290	     -0.03761837	     -0.15766677	     -0.01874405	     -0.05478430	      0.03445219	      0.03766921	      0.04924906	     -0.08241364	     -0.02376342	     -0.07788091	     -0.04714408	     -0.12705563	      0.05906321
      0.80000000	      0.13753420	     -0.05797486	      0.01492537	     -0.05920418	     -0.09250914	     -0.03086111	     -0.02418966	      0.05209205	      0.07600767	      0.03489628	     -0.12036440	      0.01575867	      0.00491693	      0.02099713	     -0.40552834	      0.13709152
      0.81000000	      0.13778703	      0.02932389	      0.05105448	      0.03864774	      0.02828268	     -0.01422422	      0.01590366	      0.03647947	      0.04101797	     -0.00449777	     -0.14178790	      0.08529580	      0.12516811	      0.04341758	     -0.24693897	      0.07800665
      0.82000000	      0.09704938	      0.06808808	      0.01569899	      0.17132223	      0.12836973	      0.00809343	     -0.00296166	      0.01734621	     -0.00094784	      0.01100435	     -0.08971739	      0.01948036	      0.08555771	      0.02340510	      0.36782792	      0.07432403
      0.83000000	      0.04105173	     -0.02628621	     -0.01158949	      0.07923904	      0.15363140	      0.01583458	     -0.02446700	      0.01963520	     -0.00508240	      0.04158284	      0.04905033	     -0.06347405	      0.02771634	      0.18968439	      0.49909726	      0.01464921
      0.84000000	      0.30250850	      0.13047297	      0.10469134	     -0.25273320	      0.08084298	      0.00015764	      0.03701337	      0.02103194	     -0.00298213	      0.01174714	      0.04912677	     -0.08102193	      0.02967966	      0.09549402	      0.33797532	     -0.03678497
      0.85000000	      0.70094883	      0.24487762	      0.04882043	     -0.23275784	      0.02750782	     -0.01126861	      0.06136259	      0.03811726	     -0.00043887	     -0.00545999	      0.15827943	      0.06438649	      0.00660234	     -0.09564864	      0.17552634	      0.01590495
      0.86000000	     -0.58107781	      0.03134677	     -0.01795974	     -0.05127182	      0.01799674	      0.00484506	      0.04001455	      0.05913066	      0.00644322	      0.00773418	      0.31195894	      0.09796519	     -0.00685147	      0.07726200	     -0.15620410	     -0.06810973
      0.87000000	     -0.94963944	      0.17394966	      0.01346670	      0.06826576	      0.02462645	      0.02896832	      0.02091189	      0.04830756	     -0.01389929	      0.01286998	      0.13833030	     -0.00672621	      0.02520244	      0.08576445	     -0.12185854	     -0.03716544
